<?xml version="1.0" encoding="UTF-8"?> <!-- Generator: Adobe Illustrator 23.1.1, SVG Export Plug-In . SVG Version: 6.00 Build 0) --> <svg xmlns="http://www.w3.org/2000/svg" xmlns:xlink="http://www.w3.org/1999/xlink" version="1.1" id="Layer_1" x="0px" y="0px" viewBox="0 0 302.4 300" xml:space="preserve"> <g> <defs> <circle id="SVGID_1_" cx="150.4" cy="150" r="150"></circle> </defs> <clipPath id="SVGID_2_"> <use xlink:href="#SVGID_1_" overflow="visible"></use> </clipPath> <g clip-path="url(#SVGID_2_)"> <circle fill="#F7B500" cx="150.4" cy="150" r="150"></circle> <g> <rect x="-1.1" y="55.9" transform="matrix(0.9555 -0.2949 0.2949 0.9555 -38.6172 50.6654)" fill="#7F7F7F" width="299.5" height="195"></rect> </g> <rect x="2.2" y="97.6" transform="matrix(0.9555 -0.2949 0.2949 0.9555 -54.0595 11.8289)" fill="#F5F5F5" width="19.9" height="175.2"></rect> <rect x="27.7" y="88.4" transform="matrix(0.9555 -0.2949 0.2949 0.9555 -38.5829 45.6547)" fill="#FFFFFF" width="208.7" height="124.8"></rect> <rect x="-10.2" y="127.7" transform="matrix(0.9555 -0.2949 0.2949 0.9555 -39.5515 4.6227)" fill="#3E83F9" width="11.4" height="11.4"></rect> <rect x="-4.9" y="144.8" transform="matrix(0.9555 -0.2949 0.2949 0.9555 -44.361 6.9399)" fill="#F26092" width="11.4" height="11.4"></rect> <rect x="0.4" y="162" transform="matrix(0.9555 -0.2949 0.2949 0.9555 -49.1706 9.2571)" fill="#FED214" width="11.4" height="11.4"></rect> <rect x="5.7" y="179.1" transform="matrix(0.9555 -0.2949 0.2949 0.9555 -53.9802 11.5743)" fill="#7658C5" width="11.4" height="11.4"></rect> <g> <rect x="241.4" y="19.3" transform="matrix(0.9555 -0.2949 0.2949 0.9555 -19.7253 83.0924)" fill="#F5F5F5" width="48.6" height="175.2"></rect> <rect x="234" y="50.6" transform="matrix(0.9555 -0.2949 0.2949 0.9555 -8.0077 77.447)" fill="#F7B500" width="37.5" height="29.3"></rect> <rect x="246.1" y="89.6" transform="matrix(0.9555 -0.2949 0.2949 0.9555 -18.9581 82.7228)" fill="#F26092" width="37.5" height="29.3"></rect> <rect x="258.1" y="128.5" transform="matrix(0.9555 -0.2949 0.2949 0.9555 -29.9085 87.9986)" fill="#AFE3FD" width="37.5" height="29.3"></rect> </g> <rect x="-27" y="59.8" transform="matrix(0.9555 -0.2949 0.2949 0.9555 -14.959 39.267)" fill="#3E83F9" width="299.5" height="18.9"></rect> <rect x="24.1" y="222.3" transform="matrix(0.9555 -0.2949 0.2949 0.9555 -61.5057 61.6928)" fill="#E0E0E0" width="299.5" height="25"></rect> <g> <circle fill="#3E83F9" cx="150.5" cy="230.8" r="13.1"></circle> <polygon fill="#FFFFFF" points="149.3,236.5 146.3,226.8 157.4,228.7 "></polygon> </g> <rect x="22.6" y="92.9" transform="matrix(0.9555 -0.2949 0.2949 0.9555 -26.5827 15.2592)" fill="#FFFFFF" width="29.3" height="5.7"></rect> <rect x="61.2" y="83.8" transform="matrix(0.9555 -0.2949 0.2949 0.9555 -22.5721 23.5837)" fill="#FFFFFF" width="11.4" height="5.7"></rect> <rect x="80.4" y="77.8" transform="matrix(0.9555 -0.2949 0.2949 0.9555 -19.9653 28.9943)" fill="#FFFFFF" width="11.4" height="5.7"></rect> <rect x="136.3" y="55.7" transform="matrix(0.9555 -0.2949 0.2949 0.9555 -10.2264 49.2081)" fill="#FFFFFF" width="43.4" height="5.7"></rect> <circle fill="#FFFFFF" cx="192.2" cy="48.3" r="5.9"></circle> <g> <g> <g> <defs> <rect id="SVGID_3_" x="60.1" y="141.6" transform="matrix(0.845 -0.5348 0.5348 0.845 -74.6956 74.3908)" width="61.7" height="48.9"></rect> </defs> <clipPath id="SVGID_4_"> <use xlink:href="#SVGID_3_" overflow="visible"></use> </clipPath> </g> </g> <g> <rect x="60.1" y="141.6" transform="matrix(0.845 -0.5348 0.5348 0.845 -74.6956 74.3908)" fill="#1194F6" width="61.7" height="48.9"></rect> <path fill="#FED214" d="M78.9,161.2c2.7,4.3,1.4,10-2.9,12.7c-4.3,2.7-10,1.4-12.7-2.9c-2.7-4.3-1.4-10,2.9-12.7 C70.5,155.6,76.2,156.9,78.9,161.2z"></path> <g> <defs> <rect id="SVGID_5_" x="60.1" y="141.6" transform="matrix(0.845 -0.5348 0.5348 0.845 -74.6956 74.3908)" width="61.7" height="48.9"></rect> </defs> <clipPath id="SVGID_6_"> <use xlink:href="#SVGID_5_" overflow="visible"></use> </clipPath> <polygon clip-path="url(#SVGID_6_)" fill="#AFE3FD" points="74,196.5 82.7,178.4 96.2,179.1 99.9,149.5 119.6,152.3 134,175.9 82.3,205.3 77.8,207.7 "></polygon> </g> </g> <g> <g> <defs> <rect id="SVGID_7_" x="60.1" y="141.6" transform="matrix(0.845 -0.5348 0.5348 0.845 -74.6956 74.3908)" width="61.7" height="48.9"></rect> </defs> <clipPath id="SVGID_8_"> <use xlink:href="#SVGID_7_" overflow="visible"></use> </clipPath> </g> </g> </g> <g> <path fill="#1D1D1B" d="M116.7,190.6l6.1-3.7l4.2,5.7c0.6,0.7,1.4,1,2.2,0.7c0.2-0.1,0.4-0.2,0.6-0.3c0.7-0.6,0.9-1.3,0.7-2.2 c0-0.2-0.1-0.5-0.3-0.7l-4.3-5.6l5.3-4.5l-17.7-9.1L116.7,190.6z"></path> </g> <text transform="matrix(0.9555 -0.2949 0.2949 0.9555 143.6821 142.3669)" fill="#3E83F9" font-family="'MyriadPro-Semibold'" font-size="32.467px" letter-spacing="-1">Hello</text> <circle fill="#F26092" cx="157.8" cy="171.1" r="7.2"></circle> <circle fill="#008948" cx="179.7" cy="164.4" r="7.2"></circle> <circle fill="#7658C5" cx="201.5" cy="157.6" r="7.2"></circle> </g> </g> </svg> 