<svg width="24" height="24" viewBox="0 0 24 24" fill="none" xmlns="http://www.w3.org/2000/svg">
<path d="M18.075 9.915C16.7175 9.915 16.1625 8.955 16.8375 7.7775C17.2275 7.095 16.995 6.225 16.3125 5.835L15.015 5.0925C14.4225 4.74 13.6575 4.95 13.305 5.5425L13.2225 5.685C12.5475 6.8625 11.4375 6.8625 10.755 5.685L10.6725 5.5425C10.335 4.95 9.57 4.74 8.9775 5.0925L7.68 5.835C6.9975 6.225 6.765 7.1025 7.155 7.785C7.8375 8.955 7.2825 9.915 5.925 9.915C5.145 9.915 4.5 10.5525 4.5 11.34V12.66C4.5 13.44 5.1375 14.085 5.925 14.085C7.2825 14.085 7.8375 15.045 7.155 16.2225C6.765 16.905 6.9975 17.775 7.68 18.165L8.9775 18.9075C9.57 19.26 10.335 19.05 10.6875 18.4575L10.77 18.315C11.445 17.1375 12.555 17.1375 13.2375 18.315L13.32 18.4575C13.6725 19.05 14.4375 19.26 15.03 18.9075L16.3275 18.165C17.01 17.775 17.2425 16.8975 16.8525 16.2225C16.17 15.045 16.725 14.085 18.0825 14.085C18.8625 14.085 19.5075 13.4475 19.5075 12.66V11.34C19.5 10.56 18.8625 9.915 18.075 9.915ZM12 14.4375C10.6575 14.4375 9.5625 13.3425 9.5625 12C9.5625 10.6575 10.6575 9.5625 12 9.5625C13.3425 9.5625 14.4375 10.6575 14.4375 12C14.4375 13.3425 13.3425 14.4375 12 14.4375Z" fill="#00AB66"/>
</svg>
