<svg width="18" height="18" viewBox="0 0 18 18" fill="none" xmlns="http://www.w3.org/2000/svg">
<path d="M11.1375 2.96248V5.81248H10.0125V2.96248C10.0125 2.75998 9.8325 2.66248 9.7125 2.66248C9.675 2.66248 9.6375 2.66998 9.6 2.68498L3.6525 4.92748C3.255 5.07748 3 5.45248 3 5.87998V6.38248C2.3175 6.89248 1.875 7.70998 1.875 8.63248V5.87998C1.875 4.98748 2.4225 4.19248 3.255 3.87748L9.21 1.62748C9.375 1.56748 9.5475 1.53748 9.7125 1.53748C10.4625 1.53748 11.1375 2.14498 11.1375 2.96248Z" fill="#D9AF62"/>
<path d="M16.125 10.875V11.625C16.125 11.8275 15.9675 11.9925 15.7575 12H14.6625C14.265 12 13.905 11.7075 13.875 11.3175C13.8525 11.085 13.9425 10.8675 14.0925 10.7175C14.2275 10.575 14.415 10.5 14.6175 10.5H15.75C15.9675 10.5075 16.125 10.6725 16.125 10.875Z" fill="#D9AF62"/>
<path d="M14.61 9.7125H15.375C15.7875 9.7125 16.125 9.375 16.125 8.9625V8.6325C16.125 7.08 14.8575 5.8125 13.305 5.8125H4.695C4.0575 5.8125 3.4725 6.0225 3 6.3825C2.3175 6.8925 1.875 7.71 1.875 8.6325V13.68C1.875 15.2325 3.1425 16.5 4.695 16.5H13.305C14.8575 16.5 16.125 15.2325 16.125 13.68V13.5375C16.125 13.125 15.7875 12.7875 15.375 12.7875H14.7225C14.0025 12.7875 13.3125 12.345 13.125 11.6475C12.9675 11.0775 13.155 10.53 13.53 10.1625C13.8075 9.8775 14.19 9.7125 14.61 9.7125ZM10.5 9.5625H5.25C4.9425 9.5625 4.6875 9.3075 4.6875 9C4.6875 8.6925 4.9425 8.4375 5.25 8.4375H10.5C10.8075 8.4375 11.0625 8.6925 11.0625 9C11.0625 9.3075 10.8075 9.5625 10.5 9.5625Z" fill="#D9AF62"/>
</svg>
